<svg width="151" height="97" viewBox="0 0 151 97" fill="none" xmlns="http://www.w3.org/2000/svg">
<path fill-rule="evenodd" clip-rule="evenodd" d="M39.31 68.6282C39.31 68.6282 61.0114 82.4168 76.5116 82.4125C92.0002 82.4082 113.682 68.6282 113.682 68.6282C113.682 68.6282 113.833 53.408 113.682 53.408C113.532 53.408 105.364 56.6431 95.5311 60.5971C85.6983 64.5511 76.5409 67.7862 76.5409 67.7862C76.5409 67.7862 67.3692 64.5511 57.5186 60.5971C47.6677 56.6431 39.4739 53.408 39.31 53.408C39.1248 53.408 39.31 68.6282 39.31 68.6282Z" fill="url(#paint0_linear_2111_654581)"/>
<path fill-rule="evenodd" clip-rule="evenodd" d="M39.31 68.6282C39.31 68.6282 61.0114 82.4168 76.5116 82.4125C92.0002 82.4082 113.682 68.6282 113.682 68.6282C113.682 68.6282 113.833 53.408 113.682 53.408C113.532 53.408 105.364 56.6431 95.5311 60.5971C85.6983 64.5511 76.5409 67.7862 76.5409 67.7862C76.5409 67.7862 67.3692 64.5511 57.5186 60.5971C47.6677 56.6431 39.4739 53.408 39.31 53.408C39.1248 53.408 39.31 68.6282 39.31 68.6282Z" fill="url(#paint1_linear_2111_654581)"/>
<path d="M58.0872 7.31081L23.1866 21.3744L0.4375 30.4343L19.0258 38.0946L33.4366 43.8789L46.6945 49.2039L68.7909 39.9877L103.569 25.875L116.264 30.9129L81.8029 45.2716L60.265 54.3653L76.5116 61.157L98.7851 52.2298C98.7851 52.2298 125.84 41.3655 126.055 41.2551C126.364 41.0957 126.445 45.9225 126.445 64.5236V69.8061L125.668 70.07C125.241 70.2154 124.694 70.7592 124.452 71.279C124.066 72.1074 121.449 91.8587 121.449 93.9406C121.449 94.3762 121.819 95.2346 122.272 95.8478L123.095 96.9625H128.943H134.791L135.614 95.8478C136.067 95.2346 136.437 94.3724 136.437 93.9317C136.437 92.5218 133.941 72.6817 133.646 71.7446C133.489 71.2485 132.929 70.5833 132.401 70.267L131.441 69.6915V63.474V39.0696L150.724 31.3916L133.973 23.7336L120.285 17.6483L106.643 12.0688L88.3895 19.6793L53.6116 33.7923L41.1202 28.694L93.7685 6.98193L92.8112 6.59904L91.4638 6.0495C83.8391 3.03931 76.6393 0.28125 76.6393 0.28125L58.0872 7.31081Z" fill="url(#paint2_linear_2111_654581)"/>
<path d="M58.0872 7.31081L23.1866 21.3744L0.4375 30.4343L19.0258 38.0946L33.4366 43.8789L46.6945 49.2039L68.7909 39.9877L103.569 25.875L116.264 30.9129L81.8029 45.2716L60.265 54.3653L76.5116 61.157L98.7851 52.2298C98.7851 52.2298 125.84 41.3655 126.055 41.2551C126.364 41.0957 126.445 45.9225 126.445 64.5236V69.8061L125.668 70.07C125.241 70.2154 124.694 70.7592 124.452 71.279C124.066 72.1074 121.449 91.8587 121.449 93.9406C121.449 94.3762 121.819 95.2346 122.272 95.8478L123.095 96.9625H128.943H134.791L135.614 95.8478C136.067 95.2346 136.437 94.3724 136.437 93.9317C136.437 92.5218 133.941 72.6817 133.646 71.7446C133.489 71.2485 132.929 70.5833 132.401 70.267L131.441 69.6915V63.474V39.0696L150.724 31.3916L133.973 23.7336L120.285 17.6483L106.643 12.0688L88.3895 19.6793L53.6116 33.7923L41.1202 28.694L93.7685 6.98193L92.8112 6.59904L91.4638 6.0495C83.8391 3.03931 76.6393 0.28125 76.6393 0.28125L58.0872 7.31081Z" fill="url(#paint3_linear_2111_654581)"/>
<defs>
<linearGradient id="paint0_linear_2111_654581" x1="-17.2714" y1="28.9985" x2="143.545" y2="40.964" gradientUnits="userSpaceOnUse">
<stop stop-color="#01E7F3"/>
<stop offset="0.391031" stop-color="#64EA66"/>
<stop offset="0.624361" stop-color="#A3F501"/>
<stop offset="1" stop-color="#08D963"/>
</linearGradient>
<linearGradient id="paint1_linear_2111_654581" x1="4.40238" y1="30.0293" x2="135.666" y2="33.376" gradientUnits="userSpaceOnUse">
<stop stop-color="#A3BAD6"/>
<stop offset="0.549588" stop-color="#4F77A8"/>
<stop offset="1" stop-color="#324C72"/>
</linearGradient>
<linearGradient id="paint2_linear_2111_654581" x1="-17.2714" y1="28.9985" x2="143.545" y2="40.964" gradientUnits="userSpaceOnUse">
<stop stop-color="#01E7F3"/>
<stop offset="0.391031" stop-color="#64EA66"/>
<stop offset="0.624361" stop-color="#A3F501"/>
<stop offset="1" stop-color="#08D963"/>
</linearGradient>
<linearGradient id="paint3_linear_2111_654581" x1="4.40238" y1="30.0293" x2="135.666" y2="33.376" gradientUnits="userSpaceOnUse">
<stop stop-color="#A3BAD6"/>
<stop offset="0.549588" stop-color="#4F77A8"/>
<stop offset="1" stop-color="#324C72"/>
</linearGradient>
</defs>
</svg>
