<svg width="113" height="113" viewBox="0 0 113 113" fill="none" xmlns="http://www.w3.org/2000/svg">
<path d="M52.7461 101.304C53.2717 101.327 53.7111 101.449 54.0645 101.671C54.4179 101.892 54.6758 102.195 54.8372 102.579L54.1029 103.018C53.9955 102.7 53.8101 102.464 53.5462 102.31C53.2827 102.149 53.0048 102.063 52.7135 102.05C52.4579 102.039 52.2359 102.065 52.0482 102.128C51.8676 102.192 51.7247 102.285 51.6198 102.409C51.5223 102.526 51.4703 102.662 51.4635 102.818C51.4568 102.975 51.5041 103.123 51.6048 103.262C51.7059 103.395 51.9007 103.496 52.1895 103.565L53.5098 103.899C54.0027 104.02 54.344 104.198 54.5332 104.434C54.7224 104.67 54.8096 104.952 54.7956 105.279C54.7812 105.613 54.6801 105.904 54.4915 106.152C54.3032 106.393 54.0462 106.574 53.7207 106.695C53.3952 106.817 53.0226 106.868 52.6035 106.85C52.085 106.827 51.61 106.697 51.179 106.458C50.7553 106.219 50.4351 105.892 50.2181 105.477L50.9648 104.986C51.1071 105.319 51.3235 105.585 51.6139 105.783C51.9115 105.98 52.2736 106.088 52.6999 106.107C53.0762 106.123 53.3739 106.064 53.5931 105.932C53.8126 105.792 53.9274 105.604 53.9375 105.37C53.9439 105.221 53.9003 105.083 53.806 104.958C53.7191 104.827 53.5416 104.727 53.2741 104.658L52.0072 104.337C51.4931 104.208 51.1275 104.014 50.9108 103.756C50.7013 103.498 50.6046 103.184 50.6204 102.814C50.633 102.523 50.726 102.26 50.8997 102.025C51.0806 101.791 51.3271 101.61 51.6387 101.481C51.9577 101.345 52.3269 101.286 52.7461 101.304Z" fill="white"/>
<path d="M63.4902 101.614C63.588 101.258 63.767 100.972 64.0267 100.757C64.2864 100.542 64.5919 100.388 64.9427 100.296C65.3141 100.199 65.67 100.183 66.0104 100.248C66.3491 100.306 66.6458 100.457 66.9004 100.699C67.1618 100.939 67.3509 101.283 67.4681 101.73L68.3333 105.031L67.5078 105.247L66.7188 102.235C66.5691 101.664 66.3411 101.301 66.0358 101.146C65.7357 100.982 65.407 100.947 65.0495 101.04C64.8019 101.105 64.5692 101.228 64.3522 101.41C64.1352 101.592 63.9796 101.839 63.8848 102.15C63.7951 102.453 63.8078 102.825 63.9232 103.265L64.64 105.999L63.8145 106.215L61.8405 98.6836L62.6654 98.4668L63.4902 101.614Z" fill="white"/>
<path d="M46.7077 100.523L48.6126 100.9L48.4694 101.622L46.5645 101.245L45.9583 104.311C45.9073 104.569 45.9429 104.775 46.0645 104.93C46.1861 105.084 46.3622 105.184 46.5924 105.23C46.7946 105.27 46.9758 105.27 47.1361 105.229C47.2964 105.188 47.4478 105.121 47.5898 105.025L47.7441 105.784C47.5548 105.899 47.34 105.976 47.1003 106.016C46.8674 106.057 46.6076 106.049 46.3216 105.992C46.0566 105.94 45.8177 105.845 45.6055 105.709C45.3947 105.566 45.2394 105.379 45.14 105.149C45.0489 104.914 45.0332 104.628 45.0924 104.292L45.7279 101.079L44.6816 100.872L44.8249 100.15L45.8711 100.357L46.1198 99.1016L47.002 99.0371L46.7077 100.523Z" fill="white"/>
<path d="M41.1465 98.8385L40.9707 99.7038C41.2188 99.4435 41.5045 99.2822 41.8268 99.2207C42.1558 99.1616 42.5153 99.1998 42.9049 99.3346C42.9922 99.3649 43.0843 99.4042 43.1803 99.4525C43.2831 99.5031 43.3646 99.5611 43.4245 99.627L43.0286 100.314C42.964 100.261 42.89 100.214 42.8073 100.17C42.7246 100.126 42.6026 100.077 42.4414 100.021C42.2331 99.9487 42.0004 99.9359 41.7435 99.9824C41.4934 100.031 41.2545 100.156 41.0273 100.355C40.8027 100.549 40.625 100.833 40.4948 101.209L39.5527 103.931L38.7467 103.652L40.4909 98.612L41.1465 98.8385Z" fill="white"/>
<path fill-rule="evenodd" clip-rule="evenodd" d="M72.888 97.8105C73.3004 97.8526 73.6691 98.0017 73.9935 98.2578C74.3148 98.5075 74.5723 98.8382 74.7656 99.25C74.817 99.3594 74.8606 99.4609 74.8965 99.554C74.9324 99.6472 74.9601 99.7324 74.9805 99.8092L71.3392 101.518C71.4947 101.796 71.6752 102.022 71.8822 102.195C72.1408 102.411 72.4208 102.539 72.722 102.578C73.0266 102.608 73.343 102.546 73.6712 102.392C74.0253 102.226 74.2801 102.023 74.4355 101.785C74.5973 101.544 74.6917 101.276 74.7181 100.981L75.4941 101.053C75.4746 101.329 75.4059 101.593 75.2884 101.844C75.1773 102.093 75.014 102.323 74.7988 102.534C74.5871 102.735 74.3232 102.911 74.0078 103.059C73.5509 103.273 73.0953 103.365 72.6413 103.335C72.1936 103.301 71.7824 103.145 71.4076 102.865C71.0297 102.579 70.7181 102.176 70.4733 101.654C70.2285 101.133 70.1183 100.638 70.1426 100.171C70.1639 99.6979 70.3016 99.28 70.5553 98.9173C70.8093 98.5546 71.1587 98.2684 71.6029 98.0599C72.0534 97.8485 72.482 97.7655 72.888 97.8105ZM73.0723 98.655C72.7034 98.5218 72.3124 98.552 71.9004 98.7454C71.5852 98.8935 71.3464 99.0961 71.1842 99.3529C71.0256 99.6001 70.9468 99.8922 70.9479 100.229C70.9506 100.417 70.9824 100.614 71.043 100.821L73.9225 99.4694C73.7089 99.0498 73.4264 98.7778 73.0723 98.655Z" fill="white"/>
<path fill-rule="evenodd" clip-rule="evenodd" d="M34.4375 95.8698C34.8933 95.8296 35.3723 95.9428 35.875 96.209C36.2144 96.3887 36.4911 96.6111 36.7044 96.877C36.921 97.1365 37.0442 97.4274 37.0749 97.7494C37.1151 98.0683 37.0374 98.4131 36.8411 98.7839L35.6328 101.065C35.513 101.291 35.573 101.468 35.8119 101.594C35.9312 101.658 36.0559 101.703 36.1855 101.732L35.8333 102.306C35.6744 102.302 35.4941 102.247 35.293 102.141C35.1108 102.044 34.966 101.923 34.8581 101.777C34.7501 101.632 34.6914 101.468 34.6829 101.286C34.6802 101.187 34.6949 101.084 34.7253 100.978C34.6113 101.041 34.4906 101.087 34.3626 101.117C34.1005 101.171 33.8365 101.176 33.5703 101.132C33.3075 101.081 33.0663 100.997 32.8464 100.881C32.5698 100.734 32.3367 100.551 32.1478 100.33C31.959 100.109 31.8422 99.8666 31.7975 99.6016C31.7624 99.3336 31.8197 99.0582 31.9694 98.7754C32.1557 98.4235 32.4251 98.1963 32.7773 98.0931C33.1393 97.987 33.5526 98.0046 34.0169 98.1458L35.9115 98.7161L36.0072 98.5358C36.1935 98.1839 36.2423 97.8632 36.1536 97.5749C36.0682 97.2804 35.8526 97.0417 35.5072 96.8587C35.1804 96.6857 34.8653 96.6113 34.5625 96.6361C34.2632 96.6546 33.9769 96.7926 33.7038 97.0501L33.2904 96.349C33.6024 96.0636 33.985 95.9038 34.4375 95.8698ZM34.0664 98.8958C33.7252 98.7956 33.449 98.7623 33.2383 98.7956C33.0276 98.8288 32.8689 98.946 32.7624 99.1471C32.6593 99.3419 32.6501 99.5419 32.7344 99.7474C32.8283 99.95 33.0167 100.126 33.2995 100.276C33.4816 100.372 33.6663 100.442 33.8529 100.484C34.0491 100.524 34.2381 100.532 34.4199 100.507C34.6051 100.476 34.7739 100.409 34.9258 100.305C35.081 100.194 35.2119 100.038 35.3184 99.8366L35.5814 99.3392L34.0664 98.8958Z" fill="white"/>
<path d="M79.0332 94.8737C78.9525 94.894 78.8696 94.9242 78.7852 94.9642C78.7007 95.0042 78.5878 95.0718 78.4466 95.1673C78.264 95.2909 78.1141 95.4696 77.9974 95.7031C77.8866 95.9327 77.8434 96.1984 77.8672 96.5C77.887 96.7957 78.0086 97.1084 78.2318 97.4382L79.8457 99.8236L79.1387 100.301L76.1497 95.8848L76.724 95.4961L77.3112 96.155C77.2516 95.8003 77.2942 95.4752 77.4382 95.1803C77.588 94.8816 77.8336 94.6165 78.1751 94.3854C78.2517 94.3336 78.338 94.2836 78.4342 94.2357C78.5365 94.1837 78.632 94.1537 78.7207 94.1452L79.0332 94.8737Z" fill="white"/>
<path d="M31.6309 91.6367L30.7207 92.847L32.2734 94.0137L31.8314 94.6022L30.2786 93.4355L28.4017 95.9342C28.2437 96.1445 28.1861 96.3458 28.2285 96.5378C28.271 96.7298 28.386 96.8968 28.5736 97.0378C28.7383 97.1616 28.9018 97.2399 29.0638 97.2728C29.2259 97.3056 29.3919 97.3098 29.5612 97.2858L29.3704 98.0365C29.15 98.0576 28.9232 98.0339 28.6901 97.9655C28.4627 97.9013 28.2324 97.7818 27.9993 97.6068C27.7834 97.4445 27.6093 97.2558 27.4772 97.041C27.3494 96.8205 27.2906 96.5849 27.3008 96.3346C27.3209 96.0829 27.4302 95.8182 27.6296 95.541L29.5964 92.9225L28.7441 92.2826L29.1862 91.694L30.0384 92.3346L30.8079 91.3112L31.6309 91.6367Z" fill="white"/>
<path fill-rule="evenodd" clip-rule="evenodd" d="M83.1849 90.7461C83.5904 90.6598 83.9871 90.6889 84.3744 90.8333C84.7568 90.9726 85.1032 91.2088 85.4134 91.5417C85.4958 91.6301 85.5682 91.7133 85.6309 91.791C85.6935 91.8686 85.7462 91.9409 85.7891 92.0078L82.8464 94.75C83.0793 94.9665 83.3198 95.1265 83.5697 95.2279C83.8822 95.3546 84.1882 95.3901 84.487 95.3353C84.786 95.2704 85.0681 95.1144 85.3333 94.8672C85.6195 94.6006 85.8006 94.3301 85.8757 94.056C85.9558 93.7772 85.963 93.4934 85.8978 93.2044L86.6589 93.0352C86.7248 93.304 86.7399 93.5762 86.7051 93.8516C86.6754 94.1222 86.5907 94.3909 86.4505 94.6576C86.3107 94.9143 86.113 95.1615 85.8581 95.3991C85.4888 95.7432 85.0834 95.9705 84.6419 96.0807C84.2056 96.1861 83.766 96.1631 83.3236 96.0117C82.8763 95.8551 82.4558 95.5659 82.0632 95.1445C81.6705 94.7231 81.4148 94.286 81.2949 93.834C81.1702 93.3768 81.1727 92.9367 81.3034 92.5137C81.434 92.0907 81.6789 91.712 82.0378 91.3776C82.4019 91.0383 82.7845 90.8276 83.1849 90.7461ZM83.6185 91.4935C83.2266 91.4797 82.8641 91.628 82.5313 91.9382C82.2764 92.1757 82.111 92.4415 82.0352 92.7357C81.9597 93.0198 81.9744 93.3226 82.0788 93.6432C82.1387 93.821 82.2294 93.9988 82.3503 94.1771L84.6777 92.0085C84.3458 91.6744 83.9933 91.502 83.6185 91.4935Z" fill="white"/>
<path d="M24.4518 87.8574C24.744 87.8105 25.0479 87.8463 25.3633 87.9655C25.6886 88.0848 25.9979 88.2946 26.291 88.5944C26.6588 88.9707 26.8959 89.3609 27.002 89.7643C27.108 90.1678 27.0886 90.5651 26.9434 90.9557L26.1081 90.7728C26.2473 90.4676 26.2734 90.1683 26.1862 89.8757C26.1041 89.5781 25.9609 89.325 25.7572 89.1165C25.5782 88.9335 25.3988 88.8006 25.2188 88.7181C25.0436 88.6407 24.8753 88.6113 24.7142 88.6296C24.5632 88.648 24.4315 88.7116 24.3197 88.821C24.2078 88.9303 24.1412 89.0708 24.1191 89.2415C24.1023 89.4072 24.1755 89.6139 24.3385 89.862L25.0716 91.0098C25.3484 91.4353 25.4754 91.7988 25.4518 92.1003C25.4283 92.4016 25.2995 92.6666 25.0658 92.8952C24.8268 93.1288 24.5534 93.2718 24.2461 93.3236C23.9439 93.3704 23.6327 93.3264 23.3125 93.1921C22.9922 93.0577 22.6852 92.8404 22.3919 92.5404C22.0291 92.1692 21.7723 91.7487 21.6217 91.2793C21.4763 90.8151 21.466 90.3573 21.5918 89.9063L22.4727 90.0599C22.3482 90.4003 22.3245 90.7419 22.401 91.0846C22.4826 91.4325 22.6725 91.7593 22.9707 92.0645C23.2341 92.3339 23.4914 92.495 23.7422 92.5482C23.998 92.5963 24.2098 92.5383 24.3776 92.3744C24.4843 92.27 24.5463 92.14 24.5632 91.9844C24.59 91.8288 24.529 91.6347 24.3809 91.4017L23.6771 90.2995C23.3906 89.8539 23.2566 89.4629 23.2754 89.1263C23.2993 88.7947 23.4433 88.4993 23.7077 88.2409C23.9162 88.0371 24.1646 87.9095 24.4518 87.8574Z" fill="white"/>
<path fill-rule="evenodd" clip-rule="evenodd" d="M43.1152 36.1426C43.7068 35.9025 45.0129 35.9805 45.6217 36.2923C46.7701 36.8804 48.2438 38.9712 48.9564 41.0234L49.1139 41.4772L49.6973 41.1563C50.9309 40.4777 52.5662 41.2211 53.3717 42.8262C54.3958 44.867 54.7587 47.2375 54.7643 51.9219C54.7689 55.7357 54.5306 58.1998 53.776 62.1406C52.1519 70.6238 49.2556 76.4185 44.1712 81.3574C43.5135 81.9964 42.8179 82.5693 42.6257 82.6302C42.0905 82.7993 41.5306 82.3612 41.5306 81.7734C41.5306 81.3769 41.7814 81.0375 43.0228 79.7539C45.258 77.4426 45.4304 77.209 48.3359 72.5612C48.8594 71.724 50.0977 68.6828 50.6979 66.7598C51.6134 63.8267 52.5412 58.5373 52.8073 54.7344C53.2037 49.0716 52.4033 43.8394 50.9974 42.903C50.6703 42.6853 50.645 42.7001 50.4251 43.2285C50.2808 43.5753 50.1403 44.7078 50.0482 46.2624C49.9244 48.3523 49.7942 49.1891 49.2233 51.5684C48.5103 54.5403 48.3684 54.9625 47.5085 56.6829C46.7449 58.2104 46.3102 58.7441 45.8307 58.7441C45.3149 58.744 44.8763 58.3391 44.8763 57.8626C44.8763 57.6558 45.1089 57.0997 45.3932 56.627C45.6776 56.1542 46.0853 55.3475 46.2988 54.8346C46.8154 53.5936 47.9202 49.1497 48.0221 47.9036C48.1071 46.8647 47.7707 44.1022 47.362 42.4837C46.6574 39.6945 44.6779 37.197 43.8392 38.0391C43.4912 38.3889 43.4404 40.3593 43.7201 42.6426C44.0243 45.1269 44.0299 47.4544 43.7376 49.8171C43.4928 51.7956 42.5616 56.2439 42.276 56.7988C41.8072 57.709 41.1994 57.9306 40.6973 57.3737C40.3759 57.0172 40.3977 56.8134 41.0684 53.8841C42.0407 49.636 42.3316 46.1962 41.8581 44.5449C41.3822 42.8853 39.8371 40.0962 38.9245 39.2494C38.5028 38.8579 37.9087 38.6219 37.5501 38.7031C36.9554 38.8383 36.8301 40.2091 37.1973 42.5599C38.3078 49.6694 38.4999 55.8637 37.6504 57.166C37.3802 57.5801 36.7439 57.6423 36.3587 57.2923C36.1325 57.0866 36.1122 56.6893 36.1712 53.5898L36.2376 50.1178L35.3229 48.2858C33.9098 45.4549 32.3722 43.6289 31.4017 43.6289C30.6635 43.6292 30.7324 45.0023 31.7031 49.6335C32.7045 54.412 32.808 58.2264 32.0313 61.7214C31.1606 65.6378 29.5523 69.4978 27.5638 72.4421C26.2148 74.4394 25.5985 75.0812 25.0299 75.0814C24.6274 75.0814 24.194 74.7157 24.194 74.3763C24.1946 74.2519 24.7837 73.253 25.5033 72.1556C26.223 71.0579 27.033 69.7384 27.304 69.2233C27.8763 68.1353 29.3884 64.3401 29.6654 63.2962C29.8514 62.5945 29.8439 62.5632 29.2773 61.6172C28.9598 61.0869 27.7925 59.3013 26.6836 57.6497C24.0641 53.7487 23.6789 52.9973 23.6693 51.7715C23.6603 50.6445 23.9455 50.2521 25.1504 49.7318C26.463 49.1648 27.4992 49.4429 29.1986 50.8177L30.1413 51.5801L30.0365 51.0013C29.9789 50.6831 29.7711 49.7013 29.5742 48.8197C28.7049 44.9296 28.7538 43.3364 29.7747 42.3112C30.2138 41.8704 30.3915 41.7969 31.0156 41.7969C32.626 41.797 34.0412 42.7034 35.0872 44.4049C35.3943 44.9044 35.6647 45.2937 35.6875 45.2708C35.7097 45.2451 35.6344 44.82 35.5195 44.3236C35.4041 43.8254 35.2257 42.6491 35.123 41.7096C34.9561 40.1816 34.9646 39.8968 35.2044 39.0072C35.6024 37.5313 36.415 36.8672 37.8229 36.8672C39.0417 36.8672 40.1346 37.6068 41.1348 39.1081L41.5306 39.7018V39.25C41.5306 38.058 42.3488 36.4539 43.1152 36.1426ZM29.431 53.6146C27.5917 51.7918 26.5861 51.1683 25.9049 51.4277C25.3981 51.621 25.4747 52.108 26.209 53.3594C27.0651 54.8184 30.319 59.6594 30.444 59.6602C30.6234 59.6602 30.7555 57.2344 30.6452 55.9642L30.5365 54.7103L29.431 53.6146Z" fill="white"/>
<path d="M14.4688 32.5C10.3565 39.6089 8.0026 47.8625 8.0026 56.6667C8.0026 65.4708 10.3565 73.7245 14.4688 80.8333L13.8913 81.1667C9.72201 73.9591 7.33594 65.591 7.33594 56.6667C7.33594 47.7423 9.72201 39.3742 13.8913 32.1667L14.4688 32.5Z" fill="white"/>
<path d="M98.7806 32.1667C102.95 39.3742 105.336 47.7423 105.336 56.6667C105.336 65.591 102.95 73.9592 98.7806 81.1667L98.2031 80.8333C102.315 73.7245 104.669 65.4708 104.669 56.6667C104.669 47.8626 102.315 39.6088 98.2031 32.5L98.7806 32.1667Z" fill="white"/>
<path d="M69.8164 35.778C70.9865 35.1106 72.5166 35.3328 73.2806 36.2813C73.6866 36.7851 74.0832 37.892 74.1914 38.8223L74.3027 39.7799L75.2806 39.1849C76.1106 38.6803 76.3874 38.5908 77.1061 38.5938C77.6011 38.5958 78.2119 38.7152 78.5768 38.8815C80.0381 39.5477 80.2879 41.5744 79.4056 45.6139C78.865 48.0893 78.1832 52.7458 78.1816 53.974L78.181 54.7767L79.2832 53.5195C81.8146 50.6345 83.3787 49.3986 85.1634 48.873C86.1793 48.574 88.0722 48.6525 88.78 49.0228C89.4357 49.3662 89.9839 50.122 90.2201 51.0085C90.4072 51.7114 90.3972 51.7735 89.9629 52.556C89.7141 53.0044 88.9947 54.0502 88.3639 54.8802C87.1283 56.5066 85.5642 59.1774 84.9303 60.7435C84.2212 62.4958 84.441 64.0417 85.6934 66.1094C86.6929 67.7595 87.4452 68.6238 88.8639 69.7533C89.8947 70.5739 90.1947 70.8983 90.1947 71.1914C90.1945 71.6348 89.7062 72.1801 89.3086 72.1803C88.5831 72.1803 86.2711 70.199 84.9733 68.4648C82.8573 65.637 82.1634 63.1748 82.832 60.8711C83.3407 59.1191 85.5996 55.2008 87.4466 52.8672C87.9544 52.2258 88.3698 51.6175 88.3698 51.5156C88.3697 51.4137 88.2629 51.178 88.1328 50.9915C87.9251 50.6938 87.7609 50.6524 86.7891 50.6523C85.848 50.6523 85.5346 50.7255 84.7064 51.14C83.5514 51.7182 81.4627 53.7724 79.6296 56.1335C78.9624 56.9927 78.2763 57.7187 78.0495 57.8047C77.8291 57.8879 77.058 57.9957 76.3366 58.0443C74.6234 58.1594 72.6909 58.7205 70.8053 59.6497C68.966 60.5561 67.7222 61.4887 66.0313 63.2311C65.3009 63.9839 64.6307 64.5462 64.4629 64.5462C63.8863 64.5462 63.5815 64.2555 63.5814 63.7051C63.5814 63.2823 63.7629 62.9687 64.5117 62.0951C66.4669 59.8144 69.531 57.8147 72.4635 56.9056C73.6966 56.5235 75.4985 56.1485 76.1035 56.1484H76.5918L76.5326 54.5371C76.4999 53.6508 76.5551 52.0333 76.6556 50.9427C76.8329 49.0195 76.9872 48.1586 77.7891 44.6211C78.2725 42.4885 78.3049 41.0045 77.877 40.5749C77.065 39.7597 75.3234 40.6566 74.1699 42.4837C73.2345 43.9655 72.5373 45.9969 72.0807 48.571C71.8046 50.1284 71.7669 50.7561 71.8457 52.515C71.9474 54.7866 71.8647 55.08 71.1224 55.0801C70.2951 55.0801 70.0894 54.2854 70.1068 51.1497C70.1208 48.6136 70.2802 47.7543 71.3561 44.4225C72.2316 41.7111 72.5145 39.9147 72.2559 38.7038C71.9383 37.2168 71.4786 36.9147 70.4785 37.5352C68.6158 38.6913 67.0858 43.5098 66.556 49.8887C66.4269 51.4422 66.2909 53.0788 66.2539 53.5254C66.1517 54.7549 65.6323 55.1428 65.0117 54.4525C64.7459 54.1567 64.7236 53.8766 64.7376 51.0553C64.746 49.3645 64.8351 47.4654 64.9362 46.8353C65.3906 44.0069 66.3002 40.4416 66.8431 39.36C67.0596 38.9287 67.0043 38.6037 66.6693 38.3353C66.0994 37.879 64.6446 39.133 63.847 40.7682C63.2335 42.0263 62.5918 44.0674 62.1309 46.2246C61.7881 47.8285 61.7051 48.6932 61.6126 51.6445C61.5521 53.575 61.4501 55.2749 61.3854 55.4232C61.312 55.5905 61.1005 55.6907 60.8203 55.6908C60.184 55.6908 59.9207 54.9648 59.7702 52.7943C59.5537 49.6726 60.1204 45.4483 61.1563 42.4577C61.8435 40.4734 61.8312 40.5248 61.5898 40.6048C60.8356 40.8546 59.7137 43.4897 59.028 46.623C57.7773 52.3393 57.9444 60.1096 59.4134 64.5462C60.2302 67.0129 61.8468 70.1649 63.2773 72.0814C64.6344 73.8993 66.8737 76.2303 68.5111 77.5293C70.333 78.9746 70.5767 79.2181 70.5768 79.5898C70.5768 80.0337 70.2008 80.4251 69.7741 80.4251C69.0548 80.4244 66.0227 77.9859 63.9616 75.7507C61.0972 72.6443 59.2442 69.6815 57.9089 66.0729C57.199 64.1545 56.9733 63.2208 56.5788 60.5762C56.2817 58.5837 56.2569 57.9503 56.3301 54.2402C56.4146 49.9517 56.5867 48.4579 57.3411 45.4609C58.1897 42.0906 59.0352 40.2811 60.1673 39.4141C60.5974 39.0847 60.9317 38.9745 61.6576 38.9238C62.5677 38.8603 62.6128 38.8363 63.3288 38.0358C64.3749 36.8658 65.2588 36.3815 66.3457 36.3815C67.0158 36.3815 67.3222 36.4627 67.6934 36.7383L68.1732 37.0944L68.653 36.6315C68.9167 36.3767 69.4401 35.9927 69.8164 35.778Z" fill="white"/>
<path d="M64.6725 30.3835C65.6217 29.4066 65.8172 29.3124 66.3288 29.5872C67.0119 29.9544 66.6371 30.8188 64.5293 33.7324C63.142 35.6502 62.673 36.0158 62.0365 35.679C61.5654 35.4298 61.458 35.2465 61.4551 34.6888C61.4534 34.3358 61.7313 33.8723 62.599 32.7806C63.2295 31.9873 64.1626 30.9084 64.6725 30.3835Z" fill="white"/>
<path d="M50.2819 27.7936C50.5791 27.3382 51.0153 27.3503 51.3861 27.8236C51.7677 28.3107 53.0882 32.2842 53.0885 32.9466C53.0885 33.8578 52.3372 34.2893 51.6237 33.7878C51.2662 33.5365 50.9757 32.6035 50.4258 29.9408C50.0905 28.3179 50.0761 28.1089 50.2819 27.7936Z" fill="white"/>
<path d="M58.4583 26.8008C59.1522 26.3579 59.6837 27.0558 59.5469 28.2305C59.2999 30.3491 58.6886 33.0239 58.3744 33.3607C57.735 34.0456 56.7383 33.6362 56.7383 32.6888C56.7384 32.0279 57.6042 28.4947 57.9844 27.6042C58.1457 27.2261 58.359 26.8643 58.4583 26.8008Z" fill="white"/>
<path d="M27.6055 24.2715C27.7092 24.6305 27.7568 24.9391 27.7474 25.1966C27.748 25.4554 27.6951 25.6793 27.5885 25.8678C27.4919 26.0577 27.3416 26.2302 27.138 26.3854C26.9458 26.5319 26.7461 26.6392 26.5391 26.7077C26.342 26.7775 26.1465 26.8146 25.9531 26.819L25.6868 26.0833C25.8776 26.0989 26.0527 26.0815 26.2116 26.0319C26.3802 25.9837 26.5268 25.9124 26.651 25.8177C26.7981 25.7056 26.9024 25.5542 26.9635 25.3646C27.0246 25.175 27.0035 24.9005 26.8997 24.5417L26.6999 23.8223L25.5059 23.1361L21.6999 20.9408L22.472 20.3522L25.6406 22.3092L26.4792 22.8639L26.1439 21.7917L25.0931 18.3542L25.8229 17.7982L27.6055 24.2715Z" fill="white"/>
<path fill-rule="evenodd" clip-rule="evenodd" d="M86.4688 16.804C86.9101 16.8382 87.3336 16.9932 87.7389 17.2695C88.1502 17.5499 88.4397 17.8768 88.6074 18.2493C88.781 18.6258 88.84 19.0188 88.7845 19.4284C88.733 19.8322 88.5793 20.2223 88.3229 20.5983C88.2549 20.6981 88.1895 20.787 88.1276 20.8652C88.0657 20.9434 88.007 21.0111 87.9512 21.0677L84.627 18.8008C84.4669 19.0759 84.3648 19.3464 84.321 19.6126C84.2662 19.9454 84.2986 20.2519 84.418 20.5313C84.5472 20.8087 84.7616 21.0497 85.0612 21.2539C85.3843 21.4742 85.6881 21.5907 85.972 21.6035C86.2617 21.6203 86.5404 21.5649 86.8079 21.4375L87.1413 22.1419C86.8935 22.2656 86.6312 22.3411 86.3548 22.3678C86.0843 22.3986 85.8034 22.3748 85.5124 22.2969C85.2312 22.217 84.9461 22.0791 84.6582 21.8828C84.2411 21.5984 83.9301 21.2528 83.7253 20.8464C83.5264 20.444 83.4525 20.0104 83.5026 19.5456C83.5568 19.0747 83.7459 18.6009 84.0703 18.125C84.3947 17.6493 84.7641 17.3032 85.1784 17.0866C85.5969 16.8641 86.0273 16.7699 86.4688 16.804ZM86.4134 17.5664C86.1196 17.5555 85.8275 17.6367 85.5378 17.8092C85.3778 17.9068 85.2245 18.0344 85.0775 18.1914L87.7044 19.9831C87.9571 19.5857 88.0483 19.2047 87.974 18.8372C87.901 18.4519 87.6768 18.1307 87.3008 17.8743C87.0129 17.6781 86.717 17.5755 86.4134 17.5664Z" fill="white"/>
<path fill-rule="evenodd" clip-rule="evenodd" d="M31.3398 14.7096C31.7888 14.7102 32.2123 14.8399 32.61 15.0977C33.0043 15.3492 33.3428 15.7258 33.625 16.2279C33.9071 16.7299 34.0549 17.2178 34.0684 17.6914C34.0783 18.159 33.9667 18.5849 33.7337 18.9688C33.507 19.349 33.1737 19.6628 32.7337 19.9102C32.2998 20.1541 31.8578 20.2759 31.4089 20.2754C30.9601 20.2748 30.5387 20.1486 30.1445 19.8971C29.7468 19.6394 29.4066 19.2593 29.1243 18.7572C28.8422 18.2551 28.6961 17.7702 28.6862 17.3027C28.6728 16.829 28.7827 16.4 29.0156 16.0163C29.2485 15.6326 29.5818 15.3187 30.0156 15.0749C30.4557 14.8275 30.8972 14.7057 31.3398 14.7096ZM31.3053 15.4759C31.0021 15.4588 30.6924 15.5391 30.3763 15.7168C30.0602 15.8945 29.8305 16.1174 29.6875 16.3854C29.5446 16.6534 29.4859 16.9555 29.5117 17.2917C29.5403 17.6182 29.6595 17.9673 29.8685 18.3392C30.074 18.7049 30.3106 18.9878 30.5781 19.1882C30.8519 19.385 31.1401 19.4926 31.4434 19.5098C31.7467 19.5269 32.0569 19.4466 32.373 19.2689C32.6891 19.0912 32.9188 18.8682 33.0618 18.6003C33.2048 18.3323 33.2598 18.0319 33.2279 17.6992C33.202 17.363 33.0864 17.0116 32.8809 16.6458C32.6719 16.274 32.4323 15.9927 32.1621 15.8021C31.8945 15.6017 31.6086 15.4931 31.3053 15.4759Z" fill="white"/>
<path d="M81.4284 13.7135L81.1335 14.5456C81.4157 14.3228 81.7205 14.2031 82.0482 14.1875C82.3822 14.1751 82.7327 14.2635 83.0996 14.4518C83.1818 14.494 83.2672 14.5455 83.3555 14.6068C83.4502 14.6714 83.5228 14.7408 83.5729 14.8145L83.0846 15.4388C83.0281 15.3778 82.9618 15.3198 82.8861 15.265C82.8103 15.2101 82.6966 15.1436 82.5449 15.0658C82.3489 14.9651 82.1202 14.9204 81.8594 14.9303C81.6048 14.9436 81.3507 15.0327 81.0977 15.1986C80.8479 15.3581 80.6323 15.6152 80.4505 15.9694L79.1354 18.5319L78.3763 18.1419L80.8112 13.3971L81.4284 13.7135Z" fill="white"/>
<path d="M41.5983 15.8047L40.8991 16.0671L40.5645 15.3268C40.5038 15.6913 40.3498 15.9997 40.1029 16.252C39.8599 16.4951 39.5381 16.6919 39.1387 16.8418C38.8192 16.9617 38.4939 17.0156 38.1628 17.0033C37.8382 16.9884 37.5362 16.8811 37.2565 16.6823C36.981 16.4743 36.7614 16.1541 36.599 15.7214L35.3698 12.446L36.1686 12.1458L37.3197 15.2116C37.5095 15.7174 37.7503 16.026 38.0423 16.1367C38.332 16.2407 38.6768 16.2176 39.0762 16.0677C39.2626 15.9977 39.4345 15.8989 39.5918 15.7715C39.7465 15.6375 39.8692 15.4779 39.959 15.2923C40.053 15.0975 40.0997 14.8784 40.0996 14.6354C40.1062 14.3899 40.0546 14.1204 39.9447 13.8275L38.9251 11.1113L39.724 10.8118L41.5983 15.8047Z" fill="white"/>
<path d="M73.9388 10.6406L72.8301 13.722C72.6471 14.2305 72.6309 14.6217 72.7819 14.8952C72.9353 15.162 73.2126 15.3679 73.6139 15.5124C73.8012 15.5798 73.9963 15.6156 74.1986 15.6204C74.4033 15.6186 74.6004 15.5761 74.7891 15.4928C74.9868 15.4053 75.1643 15.2685 75.3216 15.0833C75.4856 14.9006 75.6206 14.6621 75.7266 14.3678L76.709 11.638L77.5117 11.9271L75.7057 16.9453L75.0033 16.6921L75.2279 15.9115C74.9456 16.1499 74.6283 16.2849 74.2767 16.3171C73.9342 16.3449 73.5622 16.287 73.1608 16.1426C72.8397 16.027 72.5569 15.8568 72.3125 15.6328C72.0748 15.4112 71.9138 15.1341 71.8294 14.8014C71.7543 14.4645 71.7947 14.0787 71.9512 13.6439L73.1361 10.3522L73.9388 10.6406Z" fill="white"/>
<path d="M45.8984 9.07161C46.0124 9.05938 46.1127 9.06494 46.1986 9.08854L46.2311 9.88086C46.1485 9.87113 46.0606 9.86962 45.9674 9.87695C45.8743 9.88431 45.7447 9.90755 45.5788 9.94661C45.3642 9.99713 45.1609 10.1111 44.9688 10.2878C44.7835 10.4629 44.6482 10.6954 44.5632 10.9857C44.4765 11.269 44.4784 11.6046 44.5697 11.9922L45.2298 14.7956L44.3991 14.9915L43.1771 9.80013L43.8516 9.64128L44.1667 10.4655C44.2371 10.1129 44.3915 9.82401 44.6309 9.59961C44.8772 9.37358 45.2014 9.21367 45.6029 9.11914C45.6928 9.09796 45.7914 9.08222 45.8984 9.07161Z" fill="white"/>
<path d="M68.4837 9.21745L70.3809 9.63151L70.224 10.3509L68.3268 9.93685L67.6608 12.9909C67.6048 13.2477 67.6362 13.4545 67.7546 13.6113C67.8732 13.7682 68.0474 13.8719 68.2767 13.9219C68.4781 13.9658 68.6593 13.9692 68.8203 13.9316C68.9814 13.894 69.1341 13.8287 69.278 13.7363L69.4173 14.498C69.2257 14.6091 69.0094 14.6826 68.7689 14.7174C68.5354 14.7538 68.2763 14.7405 67.9915 14.6784C67.7275 14.6208 67.4908 14.5218 67.2813 14.3815C67.0733 14.2343 66.9218 14.0449 66.8268 13.8132C66.7403 13.5759 66.7298 13.2894 66.7956 12.9544L67.4935 9.75521L66.4512 9.528L66.6081 8.80859L67.6504 9.03581L67.9232 7.78581L68.8066 7.73828L68.4837 9.21745Z" fill="white"/>
<path d="M59.8965 8.0651L59.6204 11.3281C59.5749 11.8666 59.6605 12.2487 59.877 12.474C60.094 12.6921 60.4148 12.8195 60.8398 12.8555C61.0382 12.8723 61.2362 12.8568 61.4329 12.8092C61.6302 12.7546 61.8093 12.6629 61.9701 12.5339C62.1385 12.3983 62.2747 12.2202 62.3789 12.0007C62.4902 11.7817 62.5589 11.5162 62.5853 11.2044L62.8301 8.3138L63.6803 8.38542L63.2305 13.6999L62.4863 13.6374L62.502 12.8249C62.2908 13.128 62.0195 13.3404 61.6882 13.4622C61.3644 13.5776 60.9896 13.6174 60.5645 13.5814C60.2243 13.5526 59.9072 13.4613 59.6133 13.3079C59.3266 13.1552 59.0996 12.9291 58.9323 12.6296C58.7727 12.3235 58.7124 11.9403 58.7513 11.4798L59.0462 7.99349L59.8965 8.0651Z" fill="white"/>
<path d="M55.3535 5.53906C55.5382 5.53116 55.7131 5.54512 55.8783 5.58073C56.0435 5.61635 56.1738 5.67126 56.2695 5.74544L56.0755 6.44727C55.9879 6.39417 55.8939 6.3595 55.7936 6.34245C55.693 6.31831 55.5823 6.30865 55.4616 6.3138C55.1561 6.3269 54.9213 6.41186 54.7572 6.56836C54.5928 6.71771 54.517 6.95193 54.5306 7.27148L54.5658 8.08138L56.3451 8.00521L56.377 8.74089L54.597 8.81641L54.7936 13.4102L53.9414 13.4466L53.7441 8.85286L52.679 8.89909L52.6471 8.16406L53.7122 8.11784L53.6745 7.22331C53.6644 6.98886 53.6907 6.77033 53.7533 6.56836C53.8158 6.3664 53.9154 6.19114 54.0514 6.04297C54.1945 5.89461 54.3744 5.77634 54.5911 5.6888C54.808 5.60124 55.0623 5.55154 55.3535 5.53906Z" fill="white"/>
<path fill-rule="evenodd" clip-rule="evenodd" d="M56.6693 0C87.7812 0.000131945 113.003 25.2214 113.003 56.3333C113.003 87.4453 87.7812 112.667 56.6693 112.667C25.5572 112.667 0.335938 87.4454 0.335938 56.3333C0.335938 25.2213 25.5572 0 56.6693 0ZM56.6693 0.666667C25.9254 0.666667 1.0026 25.5895 1.0026 56.3333C1.0026 87.0772 25.9254 112 56.6693 112C87.413 112 112.336 87.0771 112.336 56.3333C112.336 25.5896 87.413 0.666799 56.6693 0.666667Z" fill="white"/>
</svg>
